G75*
G70*
%OFA0B0*%
%FSLAX24Y24*%
%IPPOS*%
%LPD*%
%AMOC8*
5,1,8,0,0,1.08239X$1,22.5*
%
%ADD10C,0.0060*%
%ADD11C,0.0050*%
%ADD12C,0.0020*%
%ADD13C,0.0040*%
%ADD14C,0.0000*%
D10*
X008491Y002840D02*
X008441Y002890D01*
X008491Y002840D02*
X008591Y002840D01*
X008641Y002890D01*
X008641Y003090D01*
X008591Y003140D01*
X008491Y003140D01*
X008441Y003090D01*
X008773Y003090D02*
X008773Y003040D01*
X008823Y002990D01*
X008973Y002990D01*
X009104Y002940D02*
X009104Y002890D01*
X009154Y002840D01*
X009254Y002840D01*
X009304Y002890D01*
X009254Y002990D02*
X009304Y003040D01*
X009304Y003090D01*
X009254Y003140D01*
X009154Y003140D01*
X009104Y003090D01*
X009154Y002990D02*
X009104Y002940D01*
X009154Y002990D02*
X009254Y002990D01*
X009436Y002890D02*
X009436Y003140D01*
X009636Y003140D02*
X009636Y002890D01*
X009586Y002840D01*
X009486Y002840D01*
X009436Y002890D01*
X009436Y002600D02*
X009636Y002300D01*
X009817Y002300D02*
X009817Y002600D01*
X009967Y002450D01*
X009767Y002450D01*
X010099Y002500D02*
X010099Y002550D01*
X010149Y002600D01*
X010249Y002600D01*
X010299Y002550D01*
X010430Y002550D02*
X010630Y002350D01*
X010580Y002300D01*
X010480Y002300D01*
X010430Y002350D01*
X010430Y002550D01*
X010480Y002600D01*
X010580Y002600D01*
X010630Y002550D01*
X010630Y002350D01*
X010762Y002300D02*
X010962Y002300D01*
X010762Y002500D01*
X010762Y002550D01*
X010812Y002600D01*
X010912Y002600D01*
X010962Y002550D01*
X010912Y002840D02*
X010812Y002840D01*
X010762Y002890D01*
X010762Y002940D01*
X010812Y002990D01*
X010912Y002990D01*
X010962Y003040D01*
X010962Y003090D01*
X010912Y003140D01*
X010812Y003140D01*
X010762Y003090D01*
X010630Y003140D02*
X010630Y002940D01*
X010530Y002840D01*
X010430Y002940D01*
X010430Y003140D01*
X010299Y003040D02*
X010199Y003140D01*
X010199Y002840D01*
X010299Y002840D02*
X010099Y002840D01*
X010099Y002500D02*
X010299Y002300D01*
X010099Y002300D01*
X010181Y002100D02*
X010181Y001900D01*
X010282Y001800D01*
X010382Y001900D01*
X010382Y002100D01*
X010050Y002000D02*
X009950Y002100D01*
X009950Y001800D01*
X010050Y001800D02*
X009850Y001800D01*
X009719Y001800D02*
X009669Y001800D01*
X009669Y001850D01*
X009719Y001850D01*
X009719Y001800D01*
X009553Y001850D02*
X009553Y002050D01*
X009503Y002100D01*
X009403Y002100D01*
X009353Y002050D01*
X009553Y001850D01*
X009503Y001800D01*
X009403Y001800D01*
X009353Y001850D01*
X009353Y002050D01*
X009254Y002300D02*
X009304Y002350D01*
X009104Y002550D01*
X009104Y002350D01*
X009154Y002300D01*
X009254Y002300D01*
X009304Y002350D02*
X009304Y002550D01*
X009254Y002600D01*
X009154Y002600D01*
X009104Y002550D01*
X008973Y002550D02*
X008973Y002500D01*
X008923Y002450D01*
X008823Y002450D01*
X008773Y002400D01*
X008773Y002350D01*
X008823Y002300D01*
X008923Y002300D01*
X008973Y002350D01*
X008973Y002400D01*
X008923Y002450D01*
X008823Y002450D02*
X008773Y002500D01*
X008773Y002550D01*
X008823Y002600D01*
X008923Y002600D01*
X008973Y002550D01*
X008973Y002840D02*
X008823Y002840D01*
X008773Y002890D01*
X008773Y002940D01*
X008823Y002990D01*
X008773Y003090D02*
X008823Y003140D01*
X008973Y003140D01*
X008973Y002840D01*
X010912Y002840D02*
X010962Y002890D01*
X011093Y002990D02*
X011093Y003090D01*
X011143Y003140D01*
X011293Y003140D01*
X011293Y002840D01*
X011293Y002940D02*
X011143Y002940D01*
X011093Y002990D01*
D11*
X006631Y003400D02*
X006631Y002050D01*
X006633Y002020D01*
X006638Y001990D01*
X006647Y001961D01*
X006660Y001934D01*
X006675Y001908D01*
X006694Y001884D01*
X006715Y001863D01*
X006739Y001844D01*
X006765Y001829D01*
X006792Y001816D01*
X006821Y001807D01*
X006851Y001802D01*
X006881Y001800D01*
X007631Y001800D01*
X007831Y001600D01*
X011831Y001600D01*
X012031Y001800D01*
X012781Y001800D01*
X012811Y001802D01*
X012841Y001807D01*
X012870Y001816D01*
X012897Y001829D01*
X012923Y001844D01*
X012947Y001863D01*
X012968Y001884D01*
X012987Y001908D01*
X013002Y001934D01*
X013015Y001961D01*
X013024Y001990D01*
X013029Y002020D01*
X013031Y002050D01*
X013031Y003400D01*
X012381Y003950D01*
X012381Y004900D01*
X012379Y004923D01*
X012374Y004946D01*
X012365Y004968D01*
X012352Y004988D01*
X012337Y005006D01*
X012319Y005021D01*
X012299Y005034D01*
X012277Y005043D01*
X012254Y005048D01*
X012231Y005050D01*
X007431Y005050D01*
X007408Y005048D01*
X007385Y005043D01*
X007363Y005034D01*
X007343Y005021D01*
X007325Y005006D01*
X007310Y004988D01*
X007297Y004968D01*
X007288Y004946D01*
X007283Y004923D01*
X007281Y004900D01*
X007281Y003950D01*
X006631Y003400D01*
X007211Y003470D02*
X007211Y003030D01*
X007213Y003001D01*
X007218Y002973D01*
X007228Y002946D01*
X007240Y002920D01*
X007256Y002896D01*
X007275Y002874D01*
X007297Y002855D01*
X007321Y002839D01*
X007347Y002827D01*
X007374Y002817D01*
X007402Y002812D01*
X007431Y002810D01*
X007460Y002812D01*
X007488Y002817D01*
X007515Y002827D01*
X007541Y002839D01*
X007565Y002855D01*
X007587Y002874D01*
X007606Y002896D01*
X007622Y002920D01*
X007634Y002946D01*
X007644Y002973D01*
X007649Y003001D01*
X007651Y003030D01*
X007651Y003470D01*
X007649Y003499D01*
X007644Y003527D01*
X007634Y003554D01*
X007622Y003580D01*
X007606Y003604D01*
X007587Y003626D01*
X007565Y003645D01*
X007541Y003661D01*
X007515Y003673D01*
X007488Y003683D01*
X007460Y003688D01*
X007431Y003690D01*
X007402Y003688D01*
X007374Y003683D01*
X007347Y003673D01*
X007321Y003661D01*
X007297Y003645D01*
X007275Y003626D01*
X007256Y003604D01*
X007240Y003580D01*
X007228Y003554D01*
X007218Y003527D01*
X007213Y003499D01*
X007211Y003470D01*
X008264Y004625D02*
X008218Y004672D01*
X008264Y004625D02*
X008358Y004625D01*
X008405Y004672D01*
X008405Y004858D01*
X008358Y004905D01*
X008264Y004905D01*
X008218Y004858D01*
X008522Y004858D02*
X008568Y004905D01*
X008662Y004905D01*
X008708Y004858D01*
X008708Y004672D01*
X008662Y004625D01*
X008568Y004625D01*
X008522Y004672D01*
X008825Y004718D02*
X008825Y004905D01*
X008825Y004718D02*
X008919Y004625D01*
X009012Y004718D01*
X009012Y004905D01*
X009570Y004765D02*
X009756Y004765D01*
X009663Y004858D02*
X009663Y004672D01*
X009874Y004672D02*
X009874Y004858D01*
X009920Y004905D01*
X010060Y004905D01*
X010060Y004625D01*
X009920Y004625D01*
X009874Y004672D01*
X010770Y004765D02*
X010956Y004765D01*
X011074Y004672D02*
X011074Y004858D01*
X011120Y004905D01*
X011260Y004905D01*
X011260Y004625D01*
X011120Y004625D01*
X011074Y004672D01*
X012011Y003470D02*
X012011Y003030D01*
X012013Y003001D01*
X012018Y002973D01*
X012028Y002946D01*
X012040Y002920D01*
X012056Y002896D01*
X012075Y002874D01*
X012097Y002855D01*
X012121Y002839D01*
X012147Y002827D01*
X012174Y002817D01*
X012202Y002812D01*
X012231Y002810D01*
X012260Y002812D01*
X012288Y002817D01*
X012315Y002827D01*
X012341Y002839D01*
X012365Y002855D01*
X012387Y002874D01*
X012406Y002896D01*
X012422Y002920D01*
X012434Y002946D01*
X012444Y002973D01*
X012449Y003001D01*
X012451Y003030D01*
X012451Y003470D01*
X012449Y003499D01*
X012444Y003527D01*
X012434Y003554D01*
X012422Y003580D01*
X012406Y003604D01*
X012387Y003626D01*
X012365Y003645D01*
X012341Y003661D01*
X012315Y003673D01*
X012288Y003683D01*
X012260Y003688D01*
X012231Y003690D01*
X012202Y003688D01*
X012174Y003683D01*
X012147Y003673D01*
X012121Y003661D01*
X012097Y003645D01*
X012075Y003626D01*
X012056Y003604D01*
X012040Y003580D01*
X012028Y003554D01*
X012018Y003527D01*
X012013Y003499D01*
X012011Y003470D01*
X009189Y003455D02*
X009169Y003417D01*
X009146Y003390D01*
X009114Y003375D01*
X009079Y003367D02*
X009014Y003395D01*
X008981Y003457D01*
X008986Y003530D01*
X009029Y003580D01*
X009051Y003595D01*
X009114Y003595D01*
X009166Y003560D01*
X009189Y003515D01*
X009189Y003455D01*
D12*
X009169Y003460D02*
X009159Y003437D01*
X009146Y003417D01*
X009129Y003402D01*
X009111Y003392D01*
X009071Y003392D01*
X009079Y003390D02*
X009059Y003395D01*
X009039Y003405D01*
X009026Y003417D01*
X009014Y003435D01*
X009009Y003447D01*
X009006Y003457D01*
X009006Y003510D01*
X009014Y003530D01*
X009026Y003550D01*
X009041Y003565D01*
X009056Y003572D01*
X009064Y003575D01*
X009104Y003575D01*
X009121Y003570D01*
X009141Y003557D01*
X009151Y003545D01*
X009164Y003525D01*
X009169Y003510D01*
X009169Y003460D01*
X009209Y003442D02*
X009201Y003422D01*
X009191Y003405D01*
X009174Y003387D01*
X009154Y003370D01*
X009134Y003360D01*
X009109Y003352D01*
X009099Y003352D01*
X009096Y003352D02*
X009064Y003352D01*
X009041Y003357D01*
X009016Y003367D01*
X008994Y003387D01*
X008976Y003412D01*
X008964Y003430D01*
X008959Y003455D01*
X008959Y003512D01*
X008966Y003540D01*
X008976Y003560D01*
X009014Y003597D01*
X009041Y003612D01*
X009069Y003617D01*
X009111Y003617D01*
X009139Y003607D01*
X009166Y003590D01*
X009189Y003567D01*
X009204Y003545D01*
X009214Y003507D01*
X009214Y003460D01*
X009209Y003442D01*
X009266Y003397D02*
X009316Y003397D01*
X009334Y003402D01*
X009356Y003412D01*
X009374Y003430D01*
X009386Y003447D01*
X009391Y003460D01*
X009394Y003465D01*
X009394Y003505D01*
X009384Y003520D01*
X009371Y003542D01*
X009349Y003557D01*
X009334Y003565D01*
X009309Y003570D01*
X009266Y003570D01*
X009266Y003612D01*
X009316Y003612D01*
X009339Y003610D01*
X009361Y003602D01*
X009386Y003587D01*
X009404Y003570D01*
X009416Y003555D01*
X009426Y003535D01*
X009434Y003515D01*
X009439Y003497D01*
X009439Y003467D01*
X009434Y003442D01*
X009421Y003417D01*
X009409Y003402D01*
X009394Y003387D01*
X009374Y003372D01*
X009356Y003365D01*
X009336Y003360D01*
X009309Y003355D01*
X009266Y003355D01*
X009266Y003397D01*
X009281Y003382D02*
X009336Y003387D01*
X009374Y003407D01*
X009404Y003450D01*
X009406Y003515D01*
X009381Y003550D01*
X009336Y003582D01*
X009281Y003585D01*
X009281Y003600D01*
X009336Y003597D01*
X009384Y003570D01*
X009421Y003520D01*
X009421Y003452D01*
X009394Y003405D01*
X009344Y003372D01*
X009276Y003367D01*
X009309Y003355D02*
X009311Y003355D01*
X009516Y003370D02*
X009516Y003387D01*
X009521Y003397D01*
X009534Y003410D01*
X009556Y003410D01*
X009566Y003402D01*
X009574Y003392D01*
X009574Y003372D01*
X009571Y003365D01*
X009561Y003355D01*
X009551Y003352D01*
X009534Y003370D01*
X009531Y003387D01*
X009544Y003397D01*
X009556Y003387D01*
X009554Y003372D01*
X009546Y003380D01*
X009546Y003352D02*
X009536Y003352D01*
X009529Y003355D01*
X009519Y003362D01*
X009516Y003370D01*
X009661Y003357D02*
X009661Y003497D01*
X009666Y003522D01*
X009674Y003542D01*
X009689Y003570D01*
X009709Y003590D01*
X009739Y003607D01*
X009759Y003615D01*
X009774Y003617D01*
X009814Y003617D01*
X009839Y003610D01*
X009861Y003600D01*
X009884Y003580D01*
X009901Y003557D01*
X009911Y003535D01*
X009919Y003510D01*
X009919Y003460D01*
X009906Y003422D01*
X009886Y003392D01*
X009869Y003375D01*
X009846Y003365D01*
X009816Y003352D01*
X009774Y003352D01*
X009726Y003367D01*
X009721Y003370D01*
X009714Y003370D01*
X009704Y003357D01*
X009696Y003357D01*
X009691Y003357D02*
X009661Y003357D01*
X009674Y003365D02*
X009679Y003502D01*
X009701Y003562D01*
X009731Y003585D01*
X009776Y003600D01*
X009821Y003600D01*
X009861Y003582D01*
X009896Y003535D01*
X009904Y003502D01*
X009901Y003450D01*
X009861Y003387D01*
X009814Y003365D01*
X009771Y003370D01*
X009729Y003387D01*
X009709Y003380D01*
X009694Y003370D01*
X009694Y003380D01*
X009724Y003397D01*
X009689Y003387D01*
X009699Y003410D01*
X009689Y003410D01*
X009696Y003510D01*
X009724Y003567D01*
X009781Y003587D01*
X009839Y003580D01*
X009879Y003542D01*
X009889Y003467D01*
X009874Y003425D01*
X009844Y003390D01*
X009771Y003375D01*
X009766Y003390D02*
X009746Y003397D01*
X009729Y003410D01*
X009726Y003412D01*
X009719Y003405D01*
X009711Y003410D02*
X009709Y003412D01*
X009706Y003417D01*
X009709Y003512D01*
X009714Y003525D01*
X009724Y003545D01*
X009741Y003562D01*
X009761Y003572D01*
X009769Y003575D01*
X009811Y003575D01*
X009834Y003567D01*
X009851Y003555D01*
X009864Y003537D01*
X009874Y003520D01*
X009874Y003450D01*
X009864Y003435D01*
X009846Y003410D01*
X009826Y003395D01*
X009809Y003390D01*
X009766Y003390D01*
X009976Y003400D02*
X009976Y003442D01*
X009984Y003462D01*
X010001Y003477D01*
X010109Y003525D01*
X010119Y003535D01*
X010121Y003540D01*
X010121Y003557D01*
X010116Y003567D01*
X010114Y003570D01*
X010106Y003572D01*
X009989Y003572D01*
X009989Y003612D01*
X010101Y003612D01*
X010124Y003607D01*
X010139Y003600D01*
X010154Y003585D01*
X010164Y003570D01*
X010166Y003552D01*
X010166Y003537D01*
X010159Y003520D01*
X010146Y003502D01*
X010109Y003477D01*
X010031Y003445D01*
X010021Y003432D01*
X010016Y003420D01*
X010026Y003407D01*
X010039Y003397D01*
X010166Y003397D01*
X010166Y003357D01*
X010051Y003357D01*
X010011Y003365D01*
X009991Y003377D01*
X009976Y003400D01*
X009991Y003402D02*
X009999Y003452D01*
X010021Y003475D01*
X010126Y003520D01*
X010139Y003540D01*
X010129Y003570D01*
X010114Y003585D01*
X010004Y003587D01*
X010001Y003597D01*
X010114Y003595D01*
X010144Y003580D01*
X010149Y003532D01*
X010124Y003502D01*
X010019Y003455D01*
X010009Y003425D01*
X010004Y003405D01*
X010029Y003387D01*
X010039Y003382D02*
X010154Y003382D01*
X010159Y003380D01*
X010131Y003377D01*
X010156Y003370D02*
X010029Y003372D01*
X010039Y003382D01*
X010021Y003372D02*
X009991Y003402D01*
X010164Y003360D02*
X010166Y003357D01*
X010244Y003402D02*
X010261Y003382D01*
X010279Y003370D01*
X010299Y003360D01*
X010321Y003352D01*
X010371Y003352D01*
X010391Y003357D01*
X010416Y003367D01*
X010436Y003382D01*
X010454Y003402D01*
X010471Y003432D01*
X010479Y003457D01*
X010481Y003482D01*
X010476Y003512D01*
X010469Y003540D01*
X010444Y003577D01*
X010419Y003597D01*
X010391Y003612D01*
X010374Y003617D01*
X010326Y003617D01*
X010299Y003610D01*
X010276Y003597D01*
X010259Y003582D01*
X010241Y003562D01*
X010226Y003540D01*
X010396Y003445D01*
X010394Y003445D02*
X010414Y003475D01*
X010299Y003542D01*
X010301Y003555D01*
X010309Y003567D01*
X010321Y003575D01*
X010374Y003575D01*
X010396Y003562D01*
X010416Y003542D01*
X010424Y003530D01*
X010431Y003520D01*
X010434Y003490D01*
X010434Y003467D01*
X010424Y003442D01*
X010411Y003417D01*
X010391Y003405D01*
X010376Y003397D01*
X010369Y003392D01*
X010329Y003392D01*
X010314Y003400D01*
X010296Y003412D01*
X010281Y003427D01*
X010271Y003445D01*
X010264Y003475D01*
X010219Y003467D01*
X010229Y003435D01*
X010244Y003402D01*
X010261Y003402D02*
X010236Y003460D01*
X010254Y003457D02*
X010269Y003415D01*
X010316Y003385D01*
X010331Y003377D01*
X010374Y003377D01*
X010421Y003402D01*
X010449Y003465D01*
X010444Y003525D01*
X010424Y003560D01*
X010381Y003585D01*
X010329Y003587D01*
X010301Y003575D01*
X010289Y003557D01*
X010284Y003540D01*
X010396Y003475D01*
X010394Y003460D01*
X010246Y003545D01*
X010281Y003585D01*
X010269Y003545D01*
X010281Y003567D02*
X010321Y003605D01*
X010339Y003605D01*
X010376Y003605D02*
X010439Y003567D01*
X010456Y003525D01*
X010464Y003457D01*
X010434Y003395D01*
X010374Y003365D01*
X010319Y003365D01*
X010261Y003402D01*
X010289Y003590D02*
X010376Y003602D01*
X010529Y003615D02*
X010609Y003615D01*
X010606Y003622D01*
X010606Y003682D01*
X010654Y003682D01*
X010654Y003435D01*
X010641Y003400D01*
X010626Y003377D01*
X010604Y003365D01*
X010581Y003360D01*
X010561Y003355D01*
X010544Y003367D01*
X010581Y003375D01*
X010614Y003385D01*
X010629Y003412D01*
X010641Y003442D01*
X010641Y003667D01*
X010621Y003670D01*
X010624Y003440D01*
X010601Y003395D01*
X010541Y003377D01*
X010531Y003395D02*
X010566Y003395D01*
X010581Y003402D01*
X010591Y003410D01*
X010599Y003417D01*
X010606Y003432D01*
X010606Y003570D01*
X010599Y003572D01*
X010529Y003572D01*
X010529Y003615D01*
X010541Y003600D02*
X010611Y003600D01*
X010614Y003585D02*
X010541Y003582D01*
X010541Y003600D01*
X010531Y003395D02*
X010531Y003355D01*
X010556Y003355D01*
X010729Y003357D02*
X010774Y003357D01*
X010774Y003360D02*
X010774Y003730D01*
X010729Y003730D01*
X010729Y003357D01*
X010741Y003367D02*
X010741Y003717D01*
X010761Y003717D01*
X010759Y003367D01*
X010856Y003357D02*
X010856Y003612D01*
X010901Y003612D01*
X010901Y003357D01*
X010856Y003357D01*
X010869Y003370D02*
X010874Y003600D01*
X010889Y003600D02*
X010884Y003370D01*
X010869Y003370D01*
X010976Y003345D02*
X010976Y003502D01*
X010981Y003522D01*
X010989Y003545D01*
X011004Y003567D01*
X011024Y003590D01*
X011044Y003602D01*
X011071Y003615D01*
X011086Y003617D01*
X011129Y003617D01*
X011161Y003607D01*
X011184Y003595D01*
X011201Y003577D01*
X011216Y003557D01*
X011226Y003540D01*
X011234Y003507D01*
X011234Y003462D01*
X011229Y003442D01*
X011219Y003417D01*
X011204Y003395D01*
X011181Y003372D01*
X011131Y003352D01*
X011089Y003352D01*
X011041Y003367D01*
X011024Y003372D01*
X011024Y003327D01*
X011039Y003310D01*
X011059Y003292D01*
X011079Y003282D01*
X011099Y003277D01*
X011129Y003277D01*
X011179Y003290D01*
X011189Y003250D01*
X011126Y003232D01*
X011096Y003232D01*
X011061Y003237D01*
X011039Y003250D01*
X011014Y003267D01*
X010994Y003292D01*
X010984Y003317D01*
X010976Y003345D01*
X010994Y003332D02*
X010994Y003512D01*
X011011Y003515D01*
X011009Y003320D01*
X011056Y003270D01*
X011114Y003262D01*
X011169Y003275D01*
X011181Y003265D02*
X011114Y003247D01*
X011054Y003255D01*
X011011Y003295D01*
X010994Y003332D01*
X011024Y003382D02*
X011024Y003405D01*
X011089Y003375D01*
X011146Y003382D01*
X011186Y003417D01*
X011201Y003470D01*
X011194Y003537D01*
X011164Y003572D01*
X011129Y003587D01*
X011076Y003582D01*
X011036Y003570D01*
X011011Y003522D01*
X010996Y003522D02*
X011031Y003577D01*
X011074Y003597D01*
X011119Y003602D01*
X011171Y003582D01*
X011214Y003532D01*
X011216Y003457D01*
X011204Y003425D01*
X011171Y003380D01*
X011104Y003360D01*
X011024Y003382D01*
X011046Y003407D02*
X011079Y003395D01*
X011086Y003392D01*
X011129Y003392D01*
X011151Y003402D01*
X011169Y003422D01*
X011186Y003455D01*
X011189Y003520D01*
X011186Y003517D02*
X011179Y003532D01*
X011166Y003547D01*
X011154Y003560D01*
X011136Y003572D01*
X011119Y003575D01*
X011081Y003575D01*
X011061Y003565D01*
X011041Y003550D01*
X011029Y003530D01*
X011024Y003515D01*
X011024Y003422D01*
X011019Y003425D02*
X011046Y003407D01*
X010889Y003660D02*
X010879Y003660D01*
X010869Y003690D01*
X010879Y003700D01*
X010889Y003692D01*
X010886Y003675D01*
X010899Y003670D02*
X010889Y003660D01*
X010879Y003662D02*
X010871Y003660D01*
X010861Y003665D01*
X010856Y003672D01*
X010851Y003682D01*
X010851Y003690D01*
X010854Y003700D01*
X010864Y003710D01*
X010871Y003715D01*
X010886Y003715D01*
X010896Y003707D01*
X010904Y003695D01*
X010904Y003680D01*
X010899Y003670D01*
X008894Y003527D02*
X008894Y003355D01*
X008851Y003355D01*
X008851Y003530D01*
X008844Y003545D01*
X008836Y003557D01*
X008826Y003567D01*
X008809Y003575D01*
X008779Y003575D01*
X008759Y003565D01*
X008746Y003555D01*
X008734Y003537D01*
X008734Y003357D01*
X008689Y003357D01*
X008689Y003537D01*
X008686Y003542D01*
X008676Y003557D01*
X008659Y003572D01*
X008619Y003572D01*
X008609Y003567D01*
X008594Y003562D01*
X008584Y003547D01*
X008576Y003530D01*
X008576Y003357D01*
X008531Y003357D01*
X008531Y003512D01*
X008534Y003535D01*
X008539Y003550D01*
X008549Y003572D01*
X008561Y003587D01*
X008579Y003602D01*
X008599Y003612D01*
X008616Y003617D01*
X008651Y003617D01*
X008664Y003615D01*
X008681Y003605D01*
X008696Y003592D01*
X008709Y003585D01*
X008719Y003585D01*
X008729Y003595D01*
X008754Y003610D01*
X008774Y003617D01*
X008814Y003617D01*
X008846Y003605D01*
X008869Y003587D01*
X008884Y003562D01*
X008894Y003527D01*
D13*
X008874Y003527D02*
X008839Y003582D01*
X008801Y003597D01*
X008749Y003582D01*
X008716Y003557D01*
X008711Y003370D01*
X008871Y003377D02*
X008874Y003527D01*
X008701Y003562D02*
X008669Y003590D01*
X008631Y003592D01*
X008581Y003577D01*
X008554Y003532D01*
X008551Y003377D01*
D14*
X007316Y003250D02*
X007318Y003271D01*
X007324Y003292D01*
X007333Y003311D01*
X007346Y003327D01*
X007362Y003342D01*
X007380Y003353D01*
X007400Y003361D01*
X007420Y003365D01*
X007442Y003365D01*
X007462Y003361D01*
X007482Y003353D01*
X007500Y003342D01*
X007516Y003327D01*
X007529Y003311D01*
X007538Y003292D01*
X007544Y003271D01*
X007546Y003250D01*
X007544Y003229D01*
X007538Y003208D01*
X007529Y003189D01*
X007516Y003173D01*
X007500Y003158D01*
X007482Y003147D01*
X007462Y003139D01*
X007442Y003135D01*
X007420Y003135D01*
X007400Y003139D01*
X007380Y003147D01*
X007362Y003158D01*
X007346Y003173D01*
X007333Y003189D01*
X007324Y003208D01*
X007318Y003229D01*
X007316Y003250D01*
X012116Y003250D02*
X012118Y003271D01*
X012124Y003292D01*
X012133Y003311D01*
X012146Y003327D01*
X012162Y003342D01*
X012180Y003353D01*
X012200Y003361D01*
X012220Y003365D01*
X012242Y003365D01*
X012262Y003361D01*
X012282Y003353D01*
X012300Y003342D01*
X012316Y003327D01*
X012329Y003311D01*
X012338Y003292D01*
X012344Y003271D01*
X012346Y003250D01*
X012344Y003229D01*
X012338Y003208D01*
X012329Y003189D01*
X012316Y003173D01*
X012300Y003158D01*
X012282Y003147D01*
X012262Y003139D01*
X012242Y003135D01*
X012220Y003135D01*
X012200Y003139D01*
X012180Y003147D01*
X012162Y003158D01*
X012146Y003173D01*
X012133Y003189D01*
X012124Y003208D01*
X012118Y003229D01*
X012116Y003250D01*
M02*
