G75*
G70*
%OFA0B0*%
%FSLAX24Y24*%
%IPPOS*%
%LPD*%
%AMOC8*
5,1,8,0,0,1.08239X$1,22.5*
%
%ADD10C,0.0050*%
%ADD11C,0.0000*%
D10*
X006631Y002050D02*
X006631Y003400D01*
X007281Y003950D01*
X007281Y004900D01*
X007283Y004923D01*
X007288Y004946D01*
X007297Y004968D01*
X007310Y004988D01*
X007325Y005006D01*
X007343Y005021D01*
X007363Y005034D01*
X007385Y005043D01*
X007408Y005048D01*
X007431Y005050D01*
X012231Y005050D01*
X012254Y005048D01*
X012277Y005043D01*
X012299Y005034D01*
X012319Y005021D01*
X012337Y005006D01*
X012352Y004988D01*
X012365Y004968D01*
X012374Y004946D01*
X012379Y004923D01*
X012381Y004900D01*
X012381Y003950D01*
X013031Y003400D01*
X013031Y002050D01*
X013029Y002020D01*
X013024Y001990D01*
X013015Y001961D01*
X013002Y001934D01*
X012987Y001908D01*
X012968Y001884D01*
X012947Y001863D01*
X012923Y001844D01*
X012897Y001829D01*
X012870Y001816D01*
X012841Y001807D01*
X012811Y001802D01*
X012781Y001800D01*
X012031Y001800D01*
X011831Y001600D01*
X007831Y001600D01*
X007631Y001800D01*
X006881Y001800D01*
X006851Y001802D01*
X006821Y001807D01*
X006792Y001816D01*
X006765Y001829D01*
X006739Y001844D01*
X006715Y001863D01*
X006694Y001884D01*
X006675Y001908D01*
X006660Y001934D01*
X006647Y001961D01*
X006638Y001990D01*
X006633Y002020D01*
X006631Y002050D01*
D11*
X007316Y003250D02*
X007318Y003271D01*
X007324Y003292D01*
X007333Y003311D01*
X007346Y003327D01*
X007362Y003342D01*
X007380Y003353D01*
X007400Y003361D01*
X007420Y003365D01*
X007442Y003365D01*
X007462Y003361D01*
X007482Y003353D01*
X007500Y003342D01*
X007516Y003327D01*
X007529Y003311D01*
X007538Y003292D01*
X007544Y003271D01*
X007546Y003250D01*
X007544Y003229D01*
X007538Y003208D01*
X007529Y003189D01*
X007516Y003173D01*
X007500Y003158D01*
X007482Y003147D01*
X007462Y003139D01*
X007442Y003135D01*
X007420Y003135D01*
X007400Y003139D01*
X007380Y003147D01*
X007362Y003158D01*
X007346Y003173D01*
X007333Y003189D01*
X007324Y003208D01*
X007318Y003229D01*
X007316Y003250D01*
X012116Y003250D02*
X012118Y003271D01*
X012124Y003292D01*
X012133Y003311D01*
X012146Y003327D01*
X012162Y003342D01*
X012180Y003353D01*
X012200Y003361D01*
X012220Y003365D01*
X012242Y003365D01*
X012262Y003361D01*
X012282Y003353D01*
X012300Y003342D01*
X012316Y003327D01*
X012329Y003311D01*
X012338Y003292D01*
X012344Y003271D01*
X012346Y003250D01*
X012344Y003229D01*
X012338Y003208D01*
X012329Y003189D01*
X012316Y003173D01*
X012300Y003158D01*
X012282Y003147D01*
X012262Y003139D01*
X012242Y003135D01*
X012220Y003135D01*
X012200Y003139D01*
X012180Y003147D01*
X012162Y003158D01*
X012146Y003173D01*
X012133Y003189D01*
X012124Y003208D01*
X012118Y003229D01*
X012116Y003250D01*
M02*
